<?xml version="1.0" encoding="utf-8"?>
<!-- Generator: Adobe Illustrator 26.2.1, SVG Export Plug-In . SVG Version: 6.00 Build 0)  -->
<svg version="1.1" id="레이어_1" xmlns="http://www.w3.org/2000/svg" xmlns:xlink="http://www.w3.org/1999/xlink" x="0px"
	 y="0px" viewBox="0 0 50 50" style="enable-background:new 0 0 50 50;" xml:space="preserve">
<style type="text/css">
	.st0{fill:#FFFFFF;}
</style>
<path class="st0" d="M38.4,12.2c1.2,2.1,2.8,4,4.7,5.6c-0.5,0.1-0.5,0.4-0.6,0.8l-6.9,2.4c-0.3,0-0.3-0.2-0.4-0.4
	c-1.2-1.5-3.4-2.1-4.6-0.3c-0.5,0.8-0.6,1.5-0.1,2.4c-0.4,0.1-3.3,1.2-3.5,1.1c-0.1-0.1-0.1-0.1-0.1-0.2l8.5-11.9
	C35.7,11.6,38.2,12,38.4,12.2L38.4,12.2z"/>
<path class="st0" d="M21.4,21l1.8,2.5l-0.2,0l-12.1-4.1c-0.4-0.1-0.5-1-0.5-1.3c-0.1-1.3,0.1-3.1,0.4-4.4c0.2-0.7,0.7-1.4,1.1-2.1
	c0.1-0.2,0.7-1.5,0.7-1.5c0,0,0.7,0.3,0.9,0.1c1.7,2.1,3.2,4.4,4.8,6.6c0.1,0.3-0.3,0.8-0.4,1.1C17.3,20.2,19.1,22,21.4,21z"/>
<path class="st0" d="M29.5,27.3c0.1,0,0.3,0,0.4,0c2.4,1,5.3,1.5,7.6,2.6c0.4,0.2,1.3,1.8,1.5,2.3c0.5,1.1,0.6,2.2,0.7,3.4l-2.1,3.5
	c-0.2,0.2-0.1,0.6-0.3,0.8c-0.2-0.3-0.5-0.2-0.7-0.2c-0.4-0.1-3.7-5.2-4.3-5.9c-0.3-1.1-0.7-1.7-1.7-2.3l-2.4-3.3
	C28.1,27.8,29.3,27.4,29.5,27.3L29.5,27.3z"/>
<path class="st0" d="M24.2,16.7c-1.3-1.1-3-1.5-4.7-0.8l-4.8-6.6c-0.1-0.3,0.1-0.5-0.1-0.8c3.2-0.2,6.3-1.4,9.1-3
	c-0.1,0.3,0.5,0.6,0.5,0.7V16.7L24.2,16.7z"/>
<path class="st0" d="M43.7,20.2c-0.4,1.6-0.5,3.1-0.5,4.8c0,0.9,0.1,2,0.2,2.9c0.1,0.6,0.2,1.3,0.4,1.9c-0.5-0.1-0.7,0.1-1,0.4
	l-4.3-1.5c-1.1-1-2.2-1.9-3.6-2.4c-0.3-0.1-0.5-0.1-0.8-0.3c1-1,1.7-2.2,1.6-3.6l7.1-2.4L43.7,20.2L43.7,20.2z"/>
<path class="st0" d="M15,27.8c-0.3,0.2-1.9,0.7-2.3,0.9c-1.8,0.6-3.7,1.2-5.5,1.8c0-0.5-0.4-0.7-0.9-0.6C7,26.6,7,23.3,6.3,20.1
	c0.4,0.1,0.6-0.2,1-0.4l2.3,0.8c1.2,2.9,3.5,5,6.5,6.1C15.6,26.9,15.3,27.5,15,27.8L15,27.8z"/>
<path class="st0" d="M25.9,36c1.4,1.1,3.7,1.5,5.2,0.4l0.8-0.9l3.5,4.8c0.2,0.4-0.2,0.6,0,1.1c-3.2,0.2-6.3,1.3-9,3
	c0.1-0.3-0.4-0.5-0.4-0.6L25.9,36L25.9,36z"/>
<path class="st0" d="M14.4,29.7v1.1c0,0.5,0.5,1.5,0.9,1.8c0.8,0.7,1.6,0.9,2.7,1l-4.4,6.1c-0.2-0.2-0.8,0.1-0.8,0.1
	c-0.1-0.1-0.6-1.3-0.8-1.6c-0.9-1.6-2.1-3.2-3.3-4.5c-0.2-0.2-1.3-1.2-1.3-1.3c0,0,0.3-0.4,0.4-0.5L14.4,29.7L14.4,29.7z"/>
<path class="st0" d="M14.7,41c0,0-0.1-0.4,0-0.5l8.2-11.4c0.1-0.1,0.1-0.2,0.3-0.1c0.3,0.1,1,1.9,1.1,2.2c0.7,4.6-2.7,8.9-7.2,9.6
	C16.7,41,14.8,41.1,14.7,41L14.7,41z"/>
<path class="st0" d="M25.9,14.7V6.2c0,0,0.5-0.3,0.5-0.6c2.4,1.5,5.1,2.3,7.9,2.7c0.2,0,1.2,0.1,1.2,0.2c0,0-0.1,0.1-0.2,0.2
	c0,0.2,0.1,0.5,0,0.7c0,0-0.5,0.8-0.6,0.8c-0.2,0.1-1.5,0-1.9,0c-1.2,0.1-2.7,0.8-3.8,1.4C27.8,12.5,26.8,13.6,25.9,14.7L25.9,14.7z
	"/>
<path class="st0" d="M26,22.2c0-0.3-0.1-0.5-0.2-0.8c-0.2-3.2,0.6-5.5,3-7.6c1.4-1.2,3-1.8,4.8-2.1L26,22.2z"/>
<path class="st0" d="M21.8,24.6c0,0.2-0.2,0.2-0.3,0.3c-1.7,0.9-3.5,0.8-5.3,0.2c-2-0.7-3.8-2.1-4.8-4L21.8,24.6L21.8,24.6z"/>
<path class="st0" d="M27.2,29l1.8,2.6c0,0.1-0.5,0.4-0.6,0.6c-1.3,1.7,1.1,3.4,2.3,1.7c0.6,0.9-0.8,1.8-1.6,1.8
	c-2.7,0-3.5-2.3-3.1-4.7C26,30.4,26.5,29.2,27.2,29L27.2,29z"/>
<path class="st0" d="M24.2,43.7c0,0-0.2,0-0.3,0.1c-0.1,0.1-0.1,0.3-0.3,0.3c-1.6-0.9-3.3-1.6-5-2c0-0.1,0.1-0.1,0.2-0.2
	c1.8-0.9,3.4-1.4,4.7-3.1l0.7-1V43.7z"/>
<path class="st0" d="M20,30.8c-0.2,0.1-0.2-0.3-0.3-0.4c-0.4-0.6-0.8-0.9-1.6-0.9c-1.7,0-1.9,2.8,0,2.6c-0.8,0.6-2.2-0.2-2.4-1
	c-0.1-0.4-0.1-1.7,0.3-1.9c1.4-0.7,3.3-0.9,4.8-1.6c0.2-0.1,1.1,0.5,1.1,0.6L20,30.8L20,30.8z"/>
<path class="st0" d="M20.6,17.1h1.2c0.9,0,2.3,1.5,2.5,2.4c0,0.3,0.1,2.6-0.3,2.6c-0.5-0.9-1.3-1.7-1.9-2.6
	c-0.1-0.2-0.2-0.5-0.3-0.8c-0.3-0.4-1-0.8-1.2-1.4C20.5,17.2,20.5,17.2,20.6,17.1L20.6,17.1z"/>
<path class="st0" d="M33.6,24.7c-1.1,1.1-2.6,1.1-4,0.7c-0.1,0-1.1-0.4-1.1-0.4c0,0,0-0.2,0.1-0.2l5.7-1.9c0.1,0.1,0.1,0.1,0.1,0.2
	C34.4,23.5,33.9,24.3,33.6,24.7z"/>
<path class="st0" d="M36.4,41.6c0.4-0.2,0.7-0.6,1.1-0.9c0.1,0,0.8,1.4,0.9,1.6c0.2,0.2,0.7,0.1,0.9,0.5c0.7,1.1-1.1,2-1.6,0.8
	c-0.1-0.3,0-0.5,0-0.6C37.6,42.8,36.2,41.8,36.4,41.6L36.4,41.6z"/>
<path class="st0" d="M44.2,19.5l-0.5-1.4c0.1-0.1,1.6-0.3,1.8-0.5c0.1-0.1,0.1-0.3,0.3-0.4c0.9-0.9,2.1,0.6,1.2,1.3
	c-0.6,0.5-0.9,0-1.2,0.1C45.6,18.7,44.3,19.7,44.2,19.5L44.2,19.5z"/>
<path class="st0" d="M5.8,30.5l0.5,1.4c-0.1,0.1-1.5,0.3-1.7,0.4c-0.2,0.1-0.2,0.4-0.4,0.5c-1,0.8-2.1-0.8-1-1.4
	c0.5-0.3,0.7,0,1.1-0.1C4.4,31.3,5.7,30.4,5.8,30.5L5.8,30.5z"/>
<path class="st0" d="M4.3,17.4c0.1,0.1,1.6,0.4,1.8,0.5l-0.5,1.4c-0.1,0.1-1.4-0.8-1.6-0.9c-0.2,0-0.4,0.2-0.7,0.1
	c-1.3-0.2-0.8-2.3,0.6-1.6C4.3,17.1,4.2,17.3,4.3,17.4L4.3,17.4z"/>
<path class="st0" d="M37.6,7.1c0.1-0.1,0-0.4,0.1-0.7c0.4-1,1.8-0.6,1.7,0.4c-0.1,0.8-0.8,0.6-1.1,0.9c-0.2,0.2-0.7,1.5-1,1.4
	c-0.1,0-1.1-0.8-1.1-0.9c0.4-0.4,0.7-0.7,1.1-1.1C37.4,7.2,37.6,7.1,37.6,7.1z"/>
<path class="st0" d="M25.8,45l-0.2,1.9c0.1,0.2,0.3,0.2,0.3,0.4c0.5,1.5-2,1.6-1.7,0.1c0.1-0.2,0.3-0.4,0.3-0.6
	c0-0.5-0.3-1.3-0.3-1.8L25.8,45L25.8,45z"/>
<path class="st0" d="M43.8,31.9c-0.1-0.1,0.4-1.4,0.6-1.4c0.1,0,1.3,0.8,1.5,0.9c0.1,0,0.4-0.1,0.6-0.1c1.8,0,0.4,3.2-0.9,1
	L43.8,31.9L43.8,31.9z"/>
<path class="st0" d="M12.6,40.9c0.1-0.1,1.2,0.8,1.2,1c0,0.1-1.1,1.1-1.3,1.2c-0.1,0.3,0,0.5-0.2,0.8c-0.6,0.9-1.9,0.3-1.6-0.8
	c0.2-0.6,0.8-0.5,1-0.7C12,42.1,12.4,41.2,12.6,40.9z"/>
<path class="st0" d="M11.7,7.4c-0.1-0.1-0.3-0.1-0.5-0.1c-1-0.4-0.5-2,0.6-1.7c0.6,0.2,0.4,0.8,0.6,1.1c0.1,0.2,1,0.9,1.2,1.1
	c0.1,0.1,0.1,0.1,0.1,0.2c0,0.2-0.9,0.7-1,0.9C12.5,9,11.8,7.5,11.7,7.4L11.7,7.4z"/>
<path class="st0" d="M25.7,5h-1.4c-0.1,0-0.1-0.1-0.1-0.2c0-0.4,0.3-1.3,0.3-1.7c0-0.3-0.4-0.4-0.4-0.9c0.1-1.2,2.1-0.9,1.7,0.4
	c-0.1,0.3-0.3,0.4-0.3,0.6L25.7,5z"/>
<path class="st0" d="M42.9,32L41,34c-0.1-1.1-0.6-2.2-1.1-3.3c0.7,0.3,1.8,0.5,2.5,0.8C42.6,31.7,42.6,31.9,42.9,32L42.9,32z"/>
<path class="st0" d="M9.1,18.8c-0.4-0.3-1.1-0.3-1.5-0.6c0,0-0.5-0.5-0.5-0.5c0-0.1,0.1-0.1,0.1-0.2l1.8-1.7c0,0.5-0.1,1.1,0,1.6
	C8.9,17.7,9.1,18.8,9.1,18.8L9.1,18.8z"/>
<path class="st0" d="M33.3,21.7c-0.1-0.6-0.6-0.9-1.2-1c-0.4-0.1,0.1-0.2,0.3-0.2c0.8-0.1,1.3,0.3,1.8,0.9L33.3,21.7L33.3,21.7z"/>
<path class="st0" d="M37.5,10.5c-0.2,0-0.4,0-0.7,0c-0.1,0-0.5,0-0.4-0.2c0.1-0.4,0.6-0.2,0.9-0.3C37.5,10,37.5,10.4,37.5,10.5z"/>
<path class="st0" d="M19.3,19.2c-0.1-0.3-0.2-0.7,0-0.9C19.8,18.5,19.6,18.9,19.3,19.2z"/>
</svg>
